<?xml version="1.0" encoding="utf-8"?>
<!-- Generator: Adobe Illustrator 16.0.3, SVG Export Plug-In . SVG Version: 6.00 Build 0)  -->
<!DOCTYPE svg PUBLIC "-//W3C//DTD SVG 1.1//EN" "http://www.w3.org/Graphics/SVG/1.1/DTD/svg11.dtd">
<svg version="1.1" id="Camada_1" xmlns="http://www.w3.org/2000/svg" xmlns:xlink="http://www.w3.org/1999/xlink" x="0px" y="0px"
	 width="50px" height="50px" viewBox="0 0 50 50" enable-background="new 0 0 50 50" xml:space="preserve">
<g>
	<path fill="#3E3D40" d="M11.75,12.428c1.709,1.044,1.898,0.285,1.898,0.285s1.045-1.614,2.184-4.462s1.994-1.139,1.994-1.139
		s2.184,1.234,3.893,2.753c1.708,1.519,0.759,1.898,0.759,1.898l-2.468,4.652c8.544,1.708,12.437-1.424,15.475-3.038
		c3.038-1.614,1.898-3.797,1.898-3.797s-0.949-3.703-2.753-7.121c-1.804-3.417-4.937-1.139-7.784,1.14
		c-2.849,2.278-3.418,1.234-7.216-1.614S14.598,1.51,14.598,1.51l-3.607,9.684C10.991,11.193,10.042,11.384,11.75,12.428z"/>
	<path fill="#3E3D40" d="M39.472,15.75c0,0-5.56,5.412-15.312,5.412c0,0-9.087,1.139-14.688-5.412c0,0-9.304,0.76-7.31,3.987
		c1.994,3.228,4.177,4.652,4.177,4.652s-1.044,4.937,0.095,7.5s2.563,3.133,2.563,3.133s6.456,14.62,15.569,13.86
		c9.114-0.759,14.715-10.158,14.905-13.956c0,0,2.184-1.774,2.658-2.596c0.476-0.821,1.709-6.044,0-7.942
		c0,0,3.702-2.468,4.272-4.652C46.972,17.555,44.029,15.561,39.472,15.75z M39.757,31.036c-0.095,0.664-2.754,1.289-2.754,1.289
		c-3.227,13.822-12.826,13.901-12.826,13.901c-7.849,0-12.332-13.901-12.332-13.901s-2.089,0.135-2.658-0.72
		c-0.57-0.854-0.38-5.791,0-5.411c0.379,0.379,8.354,3.037,8.354,3.037c-1.416,0.602-1.625,4.511,1.138,4.511
		c3.154,0,2.47-3.751,2.47-3.751l6.409-0.047c0,0-0.433,3.892,2.753,3.892c3.606-1.294,1.566-4.699,1.566-4.699
		c2.373-0.189,6.741-2.753,7.88-2.963C40.896,25.962,39.852,30.371,39.757,31.036z"/>
	<path fill="#3E3D40" d="M21.396,11.043c-0.267-0.658-0.958-1.313-2.07-1.959l-2.513-1.462l-5.368,9.224l1.297,0.754l2.131-3.664
		l0.58,0.337c1.18,0.687,2.266,0.945,3.254,0.775c0.989-0.17,1.768-0.746,2.338-1.727C21.546,12.462,21.664,11.703,21.396,11.043z
		 M19.612,12.62c-0.38,0.652-0.885,1.035-1.517,1.145c-0.633,0.11-1.336-0.06-2.114-0.513l-0.53-0.307l2.09-3.59l0.804,0.468
		c0.778,0.452,1.262,0.893,1.458,1.324C19.996,11.576,19.934,12.067,19.612,12.62z"/>
</g>
</svg>
