<?xml version="1.0" encoding="utf-8"?>
<!-- Generator: Adobe Illustrator 15.0.0, SVG Export Plug-In  -->
<!DOCTYPE svg PUBLIC "-//W3C//DTD SVG 1.1//EN" "http://www.w3.org/Graphics/SVG/1.1/DTD/svg11.dtd" [
	<!ENTITY ns_flows "http://ns.adobe.com/Flows/1.0/">
]>
<svg version="1.1"
	 xmlns="http://www.w3.org/2000/svg" xmlns:xlink="http://www.w3.org/1999/xlink" xmlns:a="http://ns.adobe.com/AdobeSVGViewerExtensions/3.0/"
	 x="0px" y="0px" width="16px" height="16px" viewBox="0 0 16 16" enable-background="new 0 0 16 16" xml:space="preserve">
<defs>
</defs>
<polygon fill="#ffffff" points="14.504,0.413 13.32,1.444 13.32,2.476 15.678,2.476 15.678,1.444 "/>
<path fill="#ffffff" d="M13.314,2.729v11.102h2.359V2.729H13.314z M15.293,13.556h-0.404V3.071h0.404V13.556z"/>
<path fill="#ffffff" d="M15.195,15.664c-0.521,0-1.004,0-1.469,0s-0.416-0.418-0.416-0.418v-1.163h2.357v1.163
	C15.668,15.246,15.668,15.664,15.195,15.664z"/>
<path fill="#ffffff" d="M5.238,3.417L5.052,3.308L4.567,4.141l0.122,0.071c0.182,0.105,0.344,0.145,0.491,0.12
	c0.146-0.026,0.263-0.114,0.352-0.266c0.074-0.129,0.089-0.242,0.044-0.342C5.531,3.624,5.419,3.522,5.238,3.417z"/>
<path fill="#ffffff" d="M10.202,7.209C9.939,7.258,8.926,7.852,8.375,7.896c0,0,0.474,0.79-0.363,1.09
	c-0.737,0-0.637-0.902-0.637-0.902l-1.486,0.01c0,0,0.158,0.87-0.573,0.87c-0.641,0-0.592-0.906-0.264-1.046
	c0,0-1.849-0.616-1.937-0.704s-0.133,1.057,0,1.254C3.246,8.666,3.73,8.635,3.73,8.635s1.041,3.223,2.86,3.223
	c0,0,2.226-0.018,2.974-3.223c0,0,0.617-0.145,0.638-0.299C10.225,8.182,10.467,7.159,10.202,7.209z"/>
<path fill="#ffffff" d="M12.567,3c-0.032,0-0.053,0-0.06,0c-0.959,0-0.842-0.868-0.842-0.868L11.66,0H1.311L0,1.066V16h2.745
	c0,0,2.401-2.34,5.269-2.34c2.867,0,4.986,2.011,4.986,2.011V3C13,3,12.613,3,12.567,3z M3.533,3.735L4.369,1.49
	c0,0,0.287-0.551,1.167,0.11c0.881,0.66,1.013,0.902,1.673,0.375c0.66-0.528,1.387-1.056,1.805-0.265
	c0.419,0.792,0.639,1.651,0.639,1.651s0.265,0.507-0.439,0.88C8.508,4.615,7.605,5.342,5.625,4.946l0.572-1.078
	c0,0,0.219-0.089-0.176-0.441C5.625,3.075,5.117,2.789,5.117,2.789S4.92,2.392,4.656,3.052C4.391,3.713,4.148,4.087,4.148,4.087
	S4.105,4.263,3.709,4.021C3.313,3.779,3.533,3.735,3.533,3.735z M5.322,4.629c-0.229,0.039-0.48-0.021-0.754-0.18L4.434,4.371
	l-0.494,0.85L3.639,5.046l1.244-2.139l0.583,0.338c0.258,0.15,0.418,0.303,0.479,0.456C6.008,3.853,5.98,4.029,5.864,4.229
	C5.732,4.456,5.552,4.589,5.322,4.629z M11.743,5.716c-0.133,0.505-0.99,1.079-0.99,1.079c0.396,0.439,0.111,1.65,0,1.841
	c-0.109,0.19-0.615,0.602-0.615,0.602c-0.045,0.882-1.344,3.061-3.457,3.235C4.568,12.65,3.07,9.26,3.07,9.26
	S2.74,9.128,2.477,8.533C2.213,7.939,2.455,6.795,2.455,6.795S1.948,6.464,1.486,5.716C1.023,4.967,3.182,4.792,3.182,4.792
	c1.298,1.519,3.404,1.254,3.404,1.254c2.262,0,3.552-1.254,3.552-1.254C11.193,4.748,11.876,5.209,11.743,5.716z"/>
</svg>
