<?xml version="1.0" encoding="utf-8"?>
<!-- Generator: Adobe Illustrator 16.0.3, SVG Export Plug-In . SVG Version: 6.00 Build 0)  -->
<!DOCTYPE svg PUBLIC "-//W3C//DTD SVG 1.1//EN" "http://www.w3.org/Graphics/SVG/1.1/DTD/svg11.dtd">
<svg version="1.1" id="Camada_2" xmlns="http://www.w3.org/2000/svg" xmlns:xlink="http://www.w3.org/1999/xlink" x="0px" y="0px"
	 width="18px" height="18px" viewBox="0 0 20 20" enable-background="new 0 0 20 20" xml:space="preserve">
<g>
	<path fill="#999999" d="M19.356,4.386c0,0-2.713-2.713-3.423-3.423c-0.712-0.711-1.768-0.172-1.768-0.172l-2.61,2.611l5.379,5.238
		c0,0,1.614-1.615,2.422-2.423C20.164,5.41,19.356,4.386,19.356,4.386z"/>
	<path fill="#999999" d="M-0.003,14.789V20h5.426L16.104,9.372L10.71,4.14L-0.003,14.789z M4.993,18.707H3.28v-1.486H1.602V15.51
		l1.162-1.067l3.247,3.248L4.993,18.707z M11.647,6.853l-6.978,6.978l-0.55-0.616l6.914-6.976L11.647,6.853z"/>
</g>
<polygon fill="none" points="16.709,13.182 15.279,13.182 15.279,15.291 13.176,15.291 13.176,16.721 15.279,16.721 15.279,18.818 
	16.709,18.818 16.709,16.721 18.824,16.721 18.824,15.291 16.709,15.291 "/>
<path fill="#008000" d="M20,16c0-0.701-0.195-1.35-0.512-1.922c0,1.501,0,2.91,0,3.844C19.805,17.35,20,16.701,20,16z"/>
<path fill="#008000" d="M16,20c0.508,0,0.988-0.104,1.436-0.276c-0.752,0-1.75,0-2.869,0C15.012,19.896,15.494,20,16,20z"/>
<path fill="#008000" d="M12.178,15.624v-0.741c-0.07,0.239-0.115,0.486-0.139,0.741H12.178z"/>
<path fill="#008000" d="M14.057,12.89v-0.365c-0.191,0.107-0.371,0.229-0.543,0.365H14.057z"/>
<path fill="#008000" d="M19.488,17.922c0-0.934,0-2.343,0-3.844C18.807,12.845,17.508,12,16,12c-0.709,0-1.365,0.2-1.943,0.524
	v0.365h-0.543c-0.633,0.507-1.102,1.195-1.336,1.993v0.741h-0.139C12.027,15.75,12,15.871,12,16c0,1.702,1.068,3.146,2.566,3.724
	c1.119,0,2.117,0,2.869,0C18.316,19.384,19.035,18.74,19.488,17.922z M18.824,16.721h-2.115v2.098h-1.43v-2.098h-2.104v-1.43h2.104
	v-2.109h1.43v2.109h2.115V16.721z"/>
</svg>
