<?xml version="1.0" encoding="utf-8"?>
<!-- Generator: Adobe Illustrator 16.0.3, SVG Export Plug-In . SVG Version: 6.00 Build 0)  -->
<!DOCTYPE svg PUBLIC "-//W3C//DTD SVG 1.1//EN" "http://www.w3.org/Graphics/SVG/1.1/DTD/svg11.dtd">
<svg version="1.1" id="Camada_2" xmlns="http://www.w3.org/2000/svg" xmlns:xlink="http://www.w3.org/1999/xlink" x="0px" y="0px"
	 width="18px" height="18px" viewBox="0 0 20 20" enable-background="new 0 0 20 20" xml:space="preserve">
<g>
	<path fill="none" d="M5.474,11.377v1.772h6.956c0.171-0.137,0.351-0.258,0.543-0.365v-1.407H5.474z"/>
	<polygon fill="none" points="15.625,13.441 14.195,13.441 14.195,15.551 12.092,15.551 12.092,16.98 14.195,16.98 14.195,19.078 
		15.625,19.078 15.625,16.98 17.74,16.98 17.74,15.551 15.625,15.551 	"/>
	<path fill="none" d="M5.474,14.109v1.774h5.48c0.024-0.255,0.069-0.502,0.14-0.741v-1.033H5.474z"/>
	<rect x="5.474" y="8.569" fill="none" width="8.976" height="1.773"/>
	<polygon fill="#999999" points="12.973,0.443 12.973,5.799 18.145,5.799 	"/>
	<path fill="#999999" d="M16.351,19.983c0.879,0,1.424,0,1.424,0s0.629,0,0.629-0.703c0-0.114,0-0.515,0-1.099
		C17.951,19,17.231,19.644,16.351,19.983z"/>
	<path fill="#999999" d="M10.916,16.26c0-0.129,0.026-0.25,0.038-0.376h-5.48v-1.774h5.62v1.033
		c0.233-0.798,0.703-1.486,1.336-1.993H5.474v-1.772h7.499v1.407c0.578-0.324,1.234-0.524,1.943-0.524
		c1.508,0,2.806,0.845,3.487,2.078c0-3.314,0-7.062,0-7.062h-5.91c0,0-0.813-0.147-0.813-0.85c0-0.702,0-6.427,0-6.427h-0.295H2.445
		c0,0-0.85,0.185-0.85,0.702s0,18.616,0,18.616s0.11,0.666,0.886,0.666c0.498,0,6.652,0,11,0
		C11.983,19.405,10.916,17.962,10.916,16.26z M5.474,8.569h8.976v1.773H5.474V8.569z"/>
	<path fill="#008000" d="M18.916,16.26c0-0.701-0.196-1.35-0.513-1.922c0,1.501,0,2.91,0,3.844
		C18.72,17.609,18.916,16.961,18.916,16.26z"/>
	<path fill="#008000" d="M14.916,20.26c0.507,0,0.988-0.104,1.435-0.276c-0.752,0-1.75,0-2.869,0
		C13.928,20.155,14.409,20.26,14.916,20.26z"/>
	<path fill="#008000" d="M11.094,15.884v-0.741c-0.07,0.239-0.115,0.486-0.14,0.741H11.094z"/>
	<path fill="#008000" d="M12.973,13.149v-0.365c-0.192,0.107-0.372,0.229-0.543,0.365H12.973z"/>
	<path fill="#008000" d="M18.403,18.182c0-0.934,0-2.343,0-3.844c-0.682-1.233-1.979-2.078-3.487-2.078
		c-0.709,0-1.365,0.2-1.943,0.524v0.365H12.43c-0.633,0.507-1.103,1.195-1.336,1.993v0.741h-0.14
		c-0.012,0.126-0.038,0.247-0.038,0.376c0,1.702,1.067,3.146,2.565,3.724c1.119,0,2.117,0,2.869,0
		C17.231,19.644,17.951,19,18.403,18.182z M17.74,16.98h-2.115v2.098h-1.43V16.98h-2.104v-1.43h2.104v-2.109h1.43v2.109h2.115V16.98
		z"/>
</g>
</svg>
