<?xml version="1.0" encoding="utf-8"?>
<!-- Generator: Adobe Illustrator 16.0.3, SVG Export Plug-In . SVG Version: 6.00 Build 0)  -->
<!DOCTYPE svg PUBLIC "-//W3C//DTD SVG 1.1//EN" "http://www.w3.org/Graphics/SVG/1.1/DTD/svg11.dtd">
<svg version="1.1" id="Camada_3" xmlns="http://www.w3.org/2000/svg" xmlns:xlink="http://www.w3.org/1999/xlink" x="0px" y="0px"
	 width="20px" height="20px" viewBox="0 0 20 20" enable-background="new 0 0 20 20" xml:space="preserve">
<path fill="#999999" d="M10,0C3.795,0.312,3.345,6.118,3.345,6.655C3.33,7.647,3.587,8.285,3.587,8.285l5.062,10.918
	C8.926,20.001,10,20.001,10,20.001c0.85,0,1.353-0.798,1.353-0.798S16.24,9.012,16.413,8.285c0.263-0.771,0.242-1.629,0.242-1.629
	C16.172-0.243,10,0,10,0z M10,10.087c-1.895,0-3.431-1.537-3.431-3.432S8.105,3.224,10,3.224c1.896,0,3.433,1.537,3.433,3.432
	S11.896,10.087,10,10.087z"/>
<g id="Camada_4">
	<circle fill="#008000" cx="15.987" cy="15.987" r="4.013"/>
	<g>
		<path fill="#FFFFFF" d="M13.162,15.278h2.104v-2.109h1.43v2.109h2.115v1.43h-2.115v2.098h-1.43v-2.098h-2.104V15.278z"/>
	</g>
</g>
</svg>
